<svg xmlns="http://www.w3.org/2000/svg" viewBox="134 47 413 470" width="413" height="470">
<defs>
<radialGradient id="glowF"><stop offset="0%" stop-color="#2FDBF1" stop-opacity="0.50"/><stop offset="55%" stop-color="#22D3EE" stop-opacity="0.13"/><stop offset="100%" stop-color="#22D3EE" stop-opacity="0"/></radialGradient>
<radialGradient id="shadowF"><stop offset="0%" stop-color="#0B1220" stop-opacity="0.20"/><stop offset="70%" stop-color="#0B1220" stop-opacity="0.05"/><stop offset="100%" stop-color="#0B1220" stop-opacity="0"/></radialGradient>
<radialGradient id="eyeF"><stop offset="0%" stop-color="#9DF1FC" stop-opacity="0.9"/><stop offset="60%" stop-color="#43E4F4" stop-opacity="0.22"/><stop offset="100%" stop-color="#43E4F4" stop-opacity="0"/></radialGradient>
<radialGradient id="coreF"><stop offset="0%" stop-color="#8FEEFB" stop-opacity="0.95"/><stop offset="55%" stop-color="#22D3EE" stop-opacity="0.30"/><stop offset="100%" stop-color="#22D3EE" stop-opacity="0"/></radialGradient>
<radialGradient id="micF"><stop offset="0%" stop-color="#A8F2FC" stop-opacity="0.95"/><stop offset="55%" stop-color="#34DDF2" stop-opacity="0.32"/><stop offset="100%" stop-color="#34DDF2" stop-opacity="0"/></radialGradient>
<linearGradient id="headF" x1="0" y1="0" x2="0" y2="1"><stop offset="0%" stop-color="#FFFFFF"/><stop offset="100%" stop-color="#E9EDF3"/></linearGradient>
<linearGradient id="bodyF" x1="0" y1="0" x2="0" y2="1"><stop offset="0%" stop-color="#FFFFFF"/><stop offset="100%" stop-color="#E6EBF1"/></linearGradient>
<linearGradient id="visorF" x1="0" y1="0" x2="0" y2="1"><stop offset="0%" stop-color="#17263F"/><stop offset="100%" stop-color="#0A1020"/></linearGradient>
<linearGradient id="bandF" x1="0" y1="0" x2="0" y2="1"><stop offset="0%" stop-color="#F4F6FA"/><stop offset="100%" stop-color="#D4DBE5"/></linearGradient>
<linearGradient id="cupF" x1="0" y1="0" x2="1" y2="1"><stop offset="0%" stop-color="#FFFFFF"/><stop offset="100%" stop-color="#DCE2EA"/></linearGradient>
</defs>

<circle cx="340" cy="250" r="220" fill="url(#glowF)"/>
<ellipse cx="340" cy="476" rx="128" ry="24" fill="url(#shadowF)"/>

<rect x="226" y="326" width="30" height="92" rx="15" fill="url(#bodyF)" stroke="#DBE1EA" stroke-width="2.5"/>
<rect x="424" y="326" width="30" height="92" rx="15" fill="url(#bodyF)" stroke="#DBE1EA" stroke-width="2.5"/>
<circle cx="241" cy="420" r="17" fill="url(#bodyF)" stroke="#DBE1EA" stroke-width="2.5"/>
<circle cx="439" cy="420" r="17" fill="url(#bodyF)" stroke="#DBE1EA" stroke-width="2.5"/>
<rect x="291" y="430" width="44" height="25" rx="12" fill="url(#bodyF)" stroke="#DBE1EA" stroke-width="2.5"/>
<rect x="345" y="430" width="44" height="25" rx="12" fill="url(#bodyF)" stroke="#DBE1EA" stroke-width="2.5"/>

<rect x="250" y="300" width="180" height="142" rx="58" fill="url(#bodyF)" stroke="#DBE1EA" stroke-width="2.5"/>
<ellipse cx="302" cy="332" rx="46" ry="15" fill="#FFFFFF" opacity="0.65"/>
<circle cx="340" cy="366" r="42" fill="url(#coreF)"/>
<circle cx="340" cy="366" r="24" fill="none" stroke="#22D3EE" stroke-width="8"/>
<circle cx="340" cy="366" r="10" fill="#34DDF2"/>
<circle cx="335" cy="361" r="3" fill="#EAFCFF"/>

<rect x="318" y="286" width="44" height="24" rx="12" fill="url(#bodyF)" stroke="#DBE1EA" stroke-width="2.5"/>

<rect x="210" y="110" width="260" height="180" rx="72" fill="url(#headF)" stroke="#DBE1EA" stroke-width="2.5"/>
<ellipse cx="300" cy="150" rx="74" ry="26" fill="#FFFFFF" opacity="0.7"/>

<path d="M198 180 C188 104 254 78 340 78 C426 78 492 104 482 180" fill="none" stroke="url(#bandF)" stroke-width="28" stroke-linecap="round"/>
<path d="M198 180 C188 104 254 78 340 78 C426 78 492 104 482 180" fill="none" stroke="#FBFCFE" stroke-width="12" stroke-linecap="round" opacity="0.55"/>
<path d="M210 168 C204 116 260 96 340 96 C420 96 476 116 470 168" fill="none" stroke="#22D3EE" stroke-width="3" stroke-linecap="round" opacity="0.6"/>

<rect x="180" y="150" width="30" height="34" rx="10" fill="url(#headF)" stroke="#C2CAD5" stroke-width="2.5"/>
<rect x="470" y="150" width="30" height="34" rx="10" fill="url(#headF)" stroke="#C2CAD5" stroke-width="2.5"/>

<circle cx="199" cy="206" r="26" fill="url(#micF)" opacity="0.55"/>
<rect x="168" y="156" width="60" height="100" rx="28" fill="url(#cupF)" stroke="#C2CAD5" stroke-width="3"/>
<rect x="178" y="168" width="40" height="76" rx="20" fill="none" stroke="#22D3EE" stroke-width="3" opacity="0.7"/>
<rect x="184" y="174" width="28" height="64" rx="14" fill="url(#visorF)"/>
<rect x="194" y="190" width="10" height="34" rx="5" fill="#34DDF2"/>
<circle cx="481" cy="206" r="26" fill="url(#micF)" opacity="0.55"/>
<rect x="452" y="156" width="60" height="100" rx="28" fill="url(#cupF)" stroke="#C2CAD5" stroke-width="3"/>
<rect x="462" y="168" width="40" height="76" rx="20" fill="none" stroke="#22D3EE" stroke-width="3" opacity="0.7"/>
<rect x="468" y="174" width="28" height="64" rx="14" fill="url(#visorF)"/>
<rect x="476" y="190" width="10" height="34" rx="5" fill="#34DDF2"/>

<rect x="236" y="140" width="208" height="120" rx="48" fill="url(#visorF)"/>
<ellipse cx="300" cy="168" rx="72" ry="20" fill="#FFFFFF" opacity="0.07"/>
<ellipse cx="300" cy="201" rx="28" ry="32" fill="url(#eyeF)"/>
<ellipse cx="380" cy="201" rx="28" ry="32" fill="url(#eyeF)"/>
<rect x="288" y="181" width="24" height="42" rx="12" fill="#46E6F5"/>
<rect x="368" y="181" width="24" height="42" rx="12" fill="#46E6F5"/>
<ellipse cx="300" cy="188" rx="8" ry="5" fill="#D6FAFF" opacity="0.85"/>
<ellipse cx="380" cy="188" rx="8" ry="5" fill="#D6FAFF" opacity="0.85"/>
<path d="M315 238 Q340 251 365 238" fill="none" stroke="#46E6F5" stroke-width="6" stroke-linecap="round"/>

<path d="M190 256 Q166 332 318 272" fill="none" stroke="#28344F" stroke-width="9" stroke-linecap="round"/>
<path d="M190 256 Q166 332 318 272" fill="none" stroke="#56637C" stroke-width="3.5" stroke-linecap="round" opacity="0.7"/>
<circle cx="320" cy="270" r="26" fill="url(#micF)"/>
<ellipse cx="320" cy="270" rx="17" ry="14" fill="#16233C"/>
<circle cx="320" cy="270" r="7.5" fill="#34DDF2"/>
<circle cx="316" cy="266" r="2.6" fill="#EAFCFF"/>
</svg>
